<svg width="240" height="240" viewBox="0 0 240 240" fill="none" xmlns="http://www.w3.org/2000/svg">
<path d="M227.277 126.65C225.018 122.487 225.018 117.516 227.276 113.352C232.449 103.812 230.086 91.9267 221.655 85.0924C217.976 82.1095 216.073 77.5161 216.565 72.8054C217.694 62.012 210.962 51.9365 200.558 48.8484C196.017 47.5008 192.502 43.9851 191.154 39.4446C188.066 29.0413 177.991 22.3067 167.198 23.4372C162.484 23.9297 157.893 22.027 154.91 18.3475C148.075 9.91657 136.191 7.5524 126.651 12.7255C122.486 14.9831 117.515 14.9831 113.351 12.7255C103.812 7.55283 91.9272 9.91614 85.0917 18.3467C82.1097 22.0261 77.5124 23.9301 72.8047 23.4364C62.0108 22.3067 51.9358 29.04 48.8477 39.4437C47.5001 43.9842 43.9848 47.5 39.4439 48.8475C29.0402 51.9357 22.3077 62.0107 23.4361 72.8041C23.9285 77.5148 22.0263 82.1082 18.3464 85.0911C9.91673 91.9254 7.55257 103.81 12.7256 113.35C14.9837 117.514 14.9837 122.486 12.7256 126.65C7.55257 136.19 9.9163 148.074 18.3464 154.909C22.0259 157.892 23.9285 162.485 23.4365 167.196C22.3077 177.989 29.0397 188.065 39.4439 191.153C43.9848 192.5 47.5001 196.016 48.8481 200.557C51.9363 210.96 62.0104 217.694 72.8047 216.564C77.5188 216.071 82.1097 217.974 85.0926 221.654C91.9264 230.084 103.812 232.447 113.352 227.274C117.516 225.017 122.487 225.017 126.651 227.274C130.043 229.113 133.73 230 137.383 230C144.003 230 150.505 227.086 154.911 221.654C157.893 217.974 162.491 216.072 167.198 216.564C167.988 216.646 168.774 216.687 169.554 216.687C179.428 216.687 188.292 210.198 191.155 200.556C192.503 196.016 196.017 192.5 200.559 191.152C210.963 188.064 217.695 177.989 216.566 167.195C216.074 162.485 217.976 157.891 221.656 154.908C230.086 148.075 232.45 136.19 227.277 126.65ZM219.721 130.748C222.923 136.651 221.46 144.005 216.243 148.235C210.297 153.055 207.223 160.478 208.018 168.092C208.717 174.77 204.551 181.005 198.113 182.916C190.775 185.094 185.093 190.776 182.915 198.114C181.005 204.551 174.777 208.72 168.091 208.019C160.478 207.224 153.055 210.298 148.234 216.244C144.005 221.461 136.651 222.923 130.747 219.723C127.382 217.898 123.693 216.986 120.001 216.986C116.311 216.986 112.619 217.899 109.255 219.723C103.352 222.924 95.9973 221.461 91.7683 216.245C86.948 210.299 79.5259 207.223 71.9109 208.019C65.2339 208.719 58.9978 204.552 57.0866 198.114C54.9085 190.776 49.2271 185.095 41.8892 182.916C35.4516 181.006 31.2853 174.771 31.9835 168.092C32.7798 160.479 29.7045 153.056 23.7588 148.236C18.5419 144.007 17.0793 136.652 20.2805 130.748C23.929 124.019 23.929 115.985 20.2805 109.255C17.0793 103.352 18.5419 95.998 23.7588 91.7685C29.7045 86.9478 32.7793 79.5249 31.9835 71.9116C31.2853 65.2329 35.4512 58.9981 41.8892 57.0873C49.2271 54.9092 54.9085 49.2278 57.0866 41.8891C58.997 35.4519 65.2284 31.2838 71.9109 31.9838C79.5242 32.7796 86.9471 29.7047 91.7674 23.7587C95.9969 18.5418 103.351 17.08 109.255 20.2803C115.984 23.9292 124.017 23.9292 130.747 20.2803C136.65 17.0787 144.005 18.5418 148.234 23.7582C153.054 29.7043 160.473 32.7792 168.091 31.9834C174.769 31.2864 181.005 35.4506 182.915 41.8886C185.093 49.2269 190.775 54.9083 198.113 57.086C204.55 58.9968 208.717 65.2316 208.018 71.9103C207.222 79.5232 210.297 86.9461 216.243 91.7668C221.46 95.9958 222.923 103.35 219.721 109.254C216.073 115.984 216.073 124.019 219.721 130.748Z" fill="black"/>
<path d="M161.086 43.5169C144.997 34.8672 126.121 31.5019 107.937 34.0405C89.1362 36.6651 72.0843 45.1665 58.625 58.6258C45.8288 71.422 37.4649 87.5848 34.4386 105.366C31.4788 122.754 33.7983 140.377 41.146 156.331C41.8709 157.904 43.426 158.831 45.0515 158.831C45.6531 158.831 46.2641 158.704 46.8468 158.436C49.0025 157.443 49.9448 154.891 48.9518 152.736C35.3181 123.135 41.6475 87.7567 64.7017 64.702C88.9209 40.4842 126.881 34.8844 157.016 51.0864C159.106 52.21 161.712 51.4267 162.835 49.3367C163.959 47.2462 163.176 44.6406 161.086 43.5169Z" fill="black"/>
<path d="M64.8834 175.483L64.7008 175.3C63.0224 173.622 60.3025 173.622 58.6237 175.3C56.9457 176.978 56.9457 179.699 58.6237 181.377L58.8067 181.56C59.6459 182.399 60.7455 182.819 61.8451 182.819C62.9447 182.819 64.0443 182.399 64.8834 181.56C66.5614 179.882 66.5614 177.161 64.8834 175.483Z" fill="black"/>
<path d="M196.177 78.3481C195.037 76.2659 192.424 75.5027 190.344 76.6418C188.263 77.7814 187.499 80.3926 188.638 82.474C205.193 112.72 199.708 150.891 175.3 175.3C152.313 198.286 118.237 204.684 88.4881 191.6C86.3152 190.645 83.7804 191.631 82.8248 193.804C81.8691 195.976 82.8557 198.511 85.0278 199.467C96.1044 204.339 107.95 206.813 119.919 206.813C125.059 206.813 130.222 206.356 135.358 205.438C152.852 202.309 168.765 193.988 181.377 181.377C194.916 167.838 203.433 150.678 206.005 131.752C208.493 113.441 205.003 94.4749 196.177 78.3481Z" fill="black"/>
<path d="M181.489 58.7373L181.377 58.6252C179.698 56.9472 176.978 56.9472 175.299 58.6252C173.622 60.3031 173.622 63.0239 175.299 64.7023L175.412 64.8144C176.251 65.6536 177.351 66.073 178.45 66.073C179.55 66.073 180.65 65.6536 181.489 64.8144C183.167 63.1365 183.167 60.4157 181.489 58.7373Z" fill="black"/>
<path d="M174.572 124.298C174.572 119.426 171.659 115.224 167.485 113.334C168.05 111.942 168.364 110.421 168.364 108.829C168.364 102.195 162.966 96.7975 156.332 96.7975H137.646L138.873 93.1542C140.811 87.4015 140.348 81.2612 137.57 75.8638C134.791 70.4665 130.063 66.5219 124.256 64.7563C122.068 64.0907 119.743 65.2556 118.965 67.4053L112.388 85.5839C110.68 90.3032 107.312 94.2241 102.904 96.6244L97.6805 99.4689C95.945 97.8159 93.5993 96.7975 91.019 96.7975H72.5186C67.1879 96.7975 62.8506 101.134 62.8506 106.466V157.599C62.8506 162.93 67.1879 167.267 72.5186 167.267H91.019C93.9762 167.267 96.6256 165.932 98.4007 163.834L100.364 164.604C104.871 166.371 109.611 167.268 114.454 167.268H150.939C157.573 167.268 162.97 161.87 162.97 155.236C162.97 153.615 162.646 152.069 162.062 150.656C166.147 148.731 168.982 144.575 168.982 139.768C168.982 138.08 168.632 136.473 168.001 135.014C171.897 133.019 174.572 128.966 174.572 124.298ZM92.0937 157.599C92.0937 158.191 91.612 158.673 91.0194 158.673H72.5191C71.9265 158.673 71.4448 158.191 71.4448 157.599V106.466C71.4448 105.873 71.9265 105.391 72.5191 105.391H91.0194C91.456 105.391 91.8307 105.654 91.9987 106.029C92.0219 106.142 92.0511 106.254 92.0838 106.365C92.0868 106.399 92.0937 106.431 92.0937 106.466V157.599ZM162.54 127.736H143.204C140.831 127.736 138.907 129.66 138.907 132.033C138.907 134.406 140.831 136.33 143.204 136.33H156.95C158.846 136.33 160.388 137.872 160.388 139.768C160.388 141.663 158.846 143.205 156.95 143.205H143.204C140.831 143.205 138.907 145.129 138.907 147.502C138.907 149.875 140.831 151.799 143.204 151.799H150.938C152.834 151.799 154.376 153.341 154.376 155.236C154.376 157.132 152.834 158.674 150.938 158.674H147.759H114.453C110.689 158.674 107.005 157.977 103.502 156.603L100.687 155.499V107.617L107.014 104.172C113.268 100.767 118.047 95.2038 120.469 88.5079L125.453 74.7346C127.326 76.0005 128.862 77.7244 129.929 79.7972C131.635 83.1101 131.919 86.8794 130.729 90.411L127.593 99.7229C127.151 101.034 127.368 102.478 128.175 103.601C128.982 104.725 130.281 105.391 131.665 105.391H156.332C158.228 105.391 159.77 106.934 159.77 108.829C159.77 110.724 158.228 112.266 156.332 112.266H143.204C140.831 112.266 138.907 114.19 138.907 116.563C138.907 118.937 140.831 120.86 143.204 120.86L162.54 120.861C164.436 120.861 165.978 122.403 165.978 124.298C165.978 126.194 164.436 127.736 162.54 127.736Z" fill="black"/>
</svg>
