<svg width="664" height="614" viewBox="0 0 664 614" fill="none" xmlns="http://www.w3.org/2000/svg">
<g filter="url(#filter0_d_1_681)">
<mask id="path-1-inside-1_1_681" fill="white">
<path d="M132.691 315.196H80.2402C56.0572 315.196 37.2663 308.497 23.8676 295.098C10.7957 281.699 4.25977 263.072 4.25977 239.216V75.9804C4.25977 51.7974 10.7957 33.1699 23.8676 20.098C37.2663 6.69935 56.0572 0 80.2402 0H132.691C156.874 0 175.502 6.69935 188.574 20.098C201.972 33.1699 208.672 51.7974 208.672 75.9804V93.6275C208.672 99.5098 205.894 102.451 200.338 102.451H169.456C163.9 102.451 161.123 99.5098 161.123 93.6275V77.9412C161.123 53.7582 149.358 41.6667 125.828 41.6667H87.1029C63.5735 41.6667 51.8088 53.7582 51.8088 77.9412V237.255C51.8088 261.438 63.5735 273.529 87.1029 273.529H125.828C149.358 273.529 161.123 261.438 161.123 237.255V193.137C161.123 189.869 159.325 188.235 155.73 188.235H116.024C110.469 188.235 107.691 185.458 107.691 179.902V154.902C107.691 149.346 110.469 146.569 116.024 146.569H198.377C205.24 146.569 208.672 150 208.672 156.863V239.216C208.672 263.072 201.972 281.699 188.574 295.098C175.175 308.497 156.547 315.196 132.691 315.196Z"/>
<path d="M220.421 238.726V225.98C220.421 220.425 223.199 217.647 228.754 217.647H260.127C265.682 217.647 268.46 220.425 268.46 225.98V234.804C268.46 248.529 271.401 258.497 277.284 264.706C283.493 270.588 293.624 273.529 307.676 273.529H341.499C355.552 273.529 365.682 270.425 371.891 264.216C378.101 257.68 381.205 247.222 381.205 232.843V221.569C381.205 211.111 377.12 202.941 368.95 197.059C361.107 190.85 351.303 186.928 339.539 185.294C327.774 183.333 314.865 180.719 300.813 177.451C286.761 174.183 273.852 170.425 262.088 166.176C250.323 161.928 240.356 153.922 232.186 142.157C224.342 130.392 220.421 115.359 220.421 97.0588V76.4706C220.421 52.6144 227.12 33.9869 240.519 20.5882C254.244 6.86274 273.035 0 296.891 0H348.852C373.035 0 391.826 6.86274 405.225 20.5882C418.95 33.9869 425.813 52.6144 425.813 76.4706V87.2549C425.813 92.8105 423.035 95.5882 417.48 95.5882H386.107C380.552 95.5882 377.774 92.8105 377.774 87.2549V80.8823C377.774 66.8301 374.669 56.8627 368.46 50.9804C362.578 44.7712 352.611 41.6667 338.558 41.6667H307.676C293.624 41.6667 283.493 44.9346 277.284 51.4706C271.401 57.6797 268.46 68.464 268.46 83.8235V99.0196C268.46 113.725 279.081 123.693 300.323 128.922C309.8 131.209 320.094 133.17 331.205 134.804C342.643 136.438 354.081 138.889 365.519 142.157C376.957 145.425 387.414 149.837 396.892 155.392C406.369 160.621 414.048 168.791 419.931 179.902C425.813 190.686 428.754 203.922 428.754 219.608V238.726C428.754 262.582 421.892 281.373 408.166 295.098C394.767 308.497 376.14 315.196 352.284 315.196H297.382C273.526 315.196 254.735 308.497 241.009 295.098C227.284 281.373 220.421 262.582 220.421 238.726Z"/>
<path d="M573.78 315.196H516.917C492.734 315.196 473.943 308.497 460.544 295.098C447.472 281.699 440.936 263.072 440.936 239.216V75.9804C440.936 51.7974 447.472 33.1699 460.544 20.098C473.943 6.69935 492.734 0 516.917 0H573.78C597.636 0 616.263 6.69935 629.662 20.098C643.061 33.1699 649.76 51.7974 649.76 75.9804V99.5098C649.76 105.392 646.819 108.333 640.936 108.333H610.054C604.498 108.333 601.721 105.392 601.721 99.5098V77.9412C601.721 53.7582 589.956 41.6667 566.427 41.6667H523.78C500.25 41.6667 488.485 53.7582 488.485 77.9412V237.255C488.485 261.438 500.25 273.529 523.78 273.529H566.427C589.956 273.529 601.721 261.438 601.721 237.255V215.686C601.721 209.804 604.498 206.863 610.054 206.863H640.936C646.819 206.863 649.76 209.804 649.76 215.686V239.216C649.76 263.072 643.061 281.699 629.662 295.098C616.263 308.497 597.636 315.196 573.78 315.196Z"/>
</mask>
<path d="M132.691 315.196H80.2402C56.0572 315.196 37.2663 308.497 23.8676 295.098C10.7957 281.699 4.25977 263.072 4.25977 239.216V75.9804C4.25977 51.7974 10.7957 33.1699 23.8676 20.098C37.2663 6.69935 56.0572 0 80.2402 0H132.691C156.874 0 175.502 6.69935 188.574 20.098C201.972 33.1699 208.672 51.7974 208.672 75.9804V93.6275C208.672 99.5098 205.894 102.451 200.338 102.451H169.456C163.9 102.451 161.123 99.5098 161.123 93.6275V77.9412C161.123 53.7582 149.358 41.6667 125.828 41.6667H87.1029C63.5735 41.6667 51.8088 53.7582 51.8088 77.9412V237.255C51.8088 261.438 63.5735 273.529 87.1029 273.529H125.828C149.358 273.529 161.123 261.438 161.123 237.255V193.137C161.123 189.869 159.325 188.235 155.73 188.235H116.024C110.469 188.235 107.691 185.458 107.691 179.902V154.902C107.691 149.346 110.469 146.569 116.024 146.569H198.377C205.24 146.569 208.672 150 208.672 156.863V239.216C208.672 263.072 201.972 281.699 188.574 295.098C175.175 308.497 156.547 315.196 132.691 315.196Z" fill="#FF1F3D"/>
<path d="M220.421 238.726V225.98C220.421 220.425 223.199 217.647 228.754 217.647H260.127C265.682 217.647 268.46 220.425 268.46 225.98V234.804C268.46 248.529 271.401 258.497 277.284 264.706C283.493 270.588 293.624 273.529 307.676 273.529H341.499C355.552 273.529 365.682 270.425 371.891 264.216C378.101 257.68 381.205 247.222 381.205 232.843V221.569C381.205 211.111 377.12 202.941 368.95 197.059C361.107 190.85 351.303 186.928 339.539 185.294C327.774 183.333 314.865 180.719 300.813 177.451C286.761 174.183 273.852 170.425 262.088 166.176C250.323 161.928 240.356 153.922 232.186 142.157C224.342 130.392 220.421 115.359 220.421 97.0588V76.4706C220.421 52.6144 227.12 33.9869 240.519 20.5882C254.244 6.86274 273.035 0 296.891 0H348.852C373.035 0 391.826 6.86274 405.225 20.5882C418.95 33.9869 425.813 52.6144 425.813 76.4706V87.2549C425.813 92.8105 423.035 95.5882 417.48 95.5882H386.107C380.552 95.5882 377.774 92.8105 377.774 87.2549V80.8823C377.774 66.8301 374.669 56.8627 368.46 50.9804C362.578 44.7712 352.611 41.6667 338.558 41.6667H307.676C293.624 41.6667 283.493 44.9346 277.284 51.4706C271.401 57.6797 268.46 68.464 268.46 83.8235V99.0196C268.46 113.725 279.081 123.693 300.323 128.922C309.8 131.209 320.094 133.17 331.205 134.804C342.643 136.438 354.081 138.889 365.519 142.157C376.957 145.425 387.414 149.837 396.892 155.392C406.369 160.621 414.048 168.791 419.931 179.902C425.813 190.686 428.754 203.922 428.754 219.608V238.726C428.754 262.582 421.892 281.373 408.166 295.098C394.767 308.497 376.14 315.196 352.284 315.196H297.382C273.526 315.196 254.735 308.497 241.009 295.098C227.284 281.373 220.421 262.582 220.421 238.726Z" fill="#FF1F3D"/>
<path d="M573.78 315.196H516.917C492.734 315.196 473.943 308.497 460.544 295.098C447.472 281.699 440.936 263.072 440.936 239.216V75.9804C440.936 51.7974 447.472 33.1699 460.544 20.098C473.943 6.69935 492.734 0 516.917 0H573.78C597.636 0 616.263 6.69935 629.662 20.098C643.061 33.1699 649.76 51.7974 649.76 75.9804V99.5098C649.76 105.392 646.819 108.333 640.936 108.333H610.054C604.498 108.333 601.721 105.392 601.721 99.5098V77.9412C601.721 53.7582 589.956 41.6667 566.427 41.6667H523.78C500.25 41.6667 488.485 53.7582 488.485 77.9412V237.255C488.485 261.438 500.25 273.529 523.78 273.529H566.427C589.956 273.529 601.721 261.438 601.721 237.255V215.686C601.721 209.804 604.498 206.863 610.054 206.863H640.936C646.819 206.863 649.76 209.804 649.76 215.686V239.216C649.76 263.072 643.061 281.699 629.662 295.098C616.263 308.497 597.636 315.196 573.78 315.196Z" fill="#FF1F3D"/>
<path d="M132.691 315.196H80.2402C56.0572 315.196 37.2663 308.497 23.8676 295.098C10.7957 281.699 4.25977 263.072 4.25977 239.216V75.9804C4.25977 51.7974 10.7957 33.1699 23.8676 20.098C37.2663 6.69935 56.0572 0 80.2402 0H132.691C156.874 0 175.502 6.69935 188.574 20.098C201.972 33.1699 208.672 51.7974 208.672 75.9804V93.6275C208.672 99.5098 205.894 102.451 200.338 102.451H169.456C163.9 102.451 161.123 99.5098 161.123 93.6275V77.9412C161.123 53.7582 149.358 41.6667 125.828 41.6667H87.1029C63.5735 41.6667 51.8088 53.7582 51.8088 77.9412V237.255C51.8088 261.438 63.5735 273.529 87.1029 273.529H125.828C149.358 273.529 161.123 261.438 161.123 237.255V193.137C161.123 189.869 159.325 188.235 155.73 188.235H116.024C110.469 188.235 107.691 185.458 107.691 179.902V154.902C107.691 149.346 110.469 146.569 116.024 146.569H198.377C205.24 146.569 208.672 150 208.672 156.863V239.216C208.672 263.072 201.972 281.699 188.574 295.098C175.175 308.497 156.547 315.196 132.691 315.196Z" stroke="#FF6277" stroke-width="6" mask="url(#path-1-inside-1_1_681)"/>
<path d="M220.421 238.726V225.98C220.421 220.425 223.199 217.647 228.754 217.647H260.127C265.682 217.647 268.46 220.425 268.46 225.98V234.804C268.46 248.529 271.401 258.497 277.284 264.706C283.493 270.588 293.624 273.529 307.676 273.529H341.499C355.552 273.529 365.682 270.425 371.891 264.216C378.101 257.68 381.205 247.222 381.205 232.843V221.569C381.205 211.111 377.12 202.941 368.95 197.059C361.107 190.85 351.303 186.928 339.539 185.294C327.774 183.333 314.865 180.719 300.813 177.451C286.761 174.183 273.852 170.425 262.088 166.176C250.323 161.928 240.356 153.922 232.186 142.157C224.342 130.392 220.421 115.359 220.421 97.0588V76.4706C220.421 52.6144 227.12 33.9869 240.519 20.5882C254.244 6.86274 273.035 0 296.891 0H348.852C373.035 0 391.826 6.86274 405.225 20.5882C418.95 33.9869 425.813 52.6144 425.813 76.4706V87.2549C425.813 92.8105 423.035 95.5882 417.48 95.5882H386.107C380.552 95.5882 377.774 92.8105 377.774 87.2549V80.8823C377.774 66.8301 374.669 56.8627 368.46 50.9804C362.578 44.7712 352.611 41.6667 338.558 41.6667H307.676C293.624 41.6667 283.493 44.9346 277.284 51.4706C271.401 57.6797 268.46 68.464 268.46 83.8235V99.0196C268.46 113.725 279.081 123.693 300.323 128.922C309.8 131.209 320.094 133.17 331.205 134.804C342.643 136.438 354.081 138.889 365.519 142.157C376.957 145.425 387.414 149.837 396.892 155.392C406.369 160.621 414.048 168.791 419.931 179.902C425.813 190.686 428.754 203.922 428.754 219.608V238.726C428.754 262.582 421.892 281.373 408.166 295.098C394.767 308.497 376.14 315.196 352.284 315.196H297.382C273.526 315.196 254.735 308.497 241.009 295.098C227.284 281.373 220.421 262.582 220.421 238.726Z" stroke="#FF6277" stroke-width="6" mask="url(#path-1-inside-1_1_681)"/>
<path d="M573.78 315.196H516.917C492.734 315.196 473.943 308.497 460.544 295.098C447.472 281.699 440.936 263.072 440.936 239.216V75.9804C440.936 51.7974 447.472 33.1699 460.544 20.098C473.943 6.69935 492.734 0 516.917 0H573.78C597.636 0 616.263 6.69935 629.662 20.098C643.061 33.1699 649.76 51.7974 649.76 75.9804V99.5098C649.76 105.392 646.819 108.333 640.936 108.333H610.054C604.498 108.333 601.721 105.392 601.721 99.5098V77.9412C601.721 53.7582 589.956 41.6667 566.427 41.6667H523.78C500.25 41.6667 488.485 53.7582 488.485 77.9412V237.255C488.485 261.438 500.25 273.529 523.78 273.529H566.427C589.956 273.529 601.721 261.438 601.721 237.255V215.686C601.721 209.804 604.498 206.863 610.054 206.863H640.936C646.819 206.863 649.76 209.804 649.76 215.686V239.216C649.76 263.072 643.061 281.699 629.662 295.098C616.263 308.497 597.636 315.196 573.78 315.196Z" stroke="#FF6277" stroke-width="6" mask="url(#path-1-inside-1_1_681)"/>
</g>
<path d="M324.078 499.02C318.663 499.02 314.274 496.404 314.274 493.176V387.216C314.274 383.989 318.663 381.373 324.078 381.373C329.493 381.373 333.882 383.989 333.882 387.216V493.176C333.882 496.404 329.493 499.02 324.078 499.02Z" fill="#7B8396"/>
<path d="M333.882 493.176V387.216C333.882 383.989 329.493 381.373 324.078 381.373V499.02C329.493 499.02 333.882 496.404 333.882 493.176Z" fill="#69737D"/>
<path d="M322.853 401.961C274.875 401.961 235.843 362.928 235.843 314.951C235.843 266.974 274.875 227.941 322.853 227.941C370.83 227.941 409.862 266.974 409.862 314.951C409.862 362.928 370.83 401.961 322.853 401.961Z" fill="#E6F0F5"/>
<path d="M321.627 227.941C370.28 227.941 409.862 266.974 409.862 314.951C409.862 362.928 370.28 401.961 321.627 401.961V227.941Z" fill="#C8DCE6"/>
<path d="M322.852 379.902C287.039 379.902 257.901 350.764 257.901 314.951C257.901 279.138 287.039 250 322.852 250C358.666 250 387.803 279.138 387.803 314.951C387.803 350.764 358.666 379.902 322.852 379.902Z" fill="black"/>
<path d="M321.627 250C358.116 250 387.803 279.138 387.803 314.951C387.803 350.764 358.116 379.902 321.627 379.902V250Z" fill="#58595B"/>
<path d="M330.205 272.059H308.147C302.055 272.059 297.117 276.859 297.117 282.782V347.12C297.117 353.043 302.055 357.843 308.147 357.843C314.239 357.843 319.176 353.043 319.176 347.12V336.397H330.205C348.45 336.397 363.294 321.966 363.294 304.228C363.294 286.49 348.45 272.059 330.205 272.059ZM330.205 314.951H319.176V293.505H330.205C336.286 293.505 341.235 298.316 341.235 304.228C341.235 310.14 336.286 314.951 330.205 314.951Z" fill="#FFCD00"/>
<path d="M363.294 303.922C363.294 286.353 348 272.059 329.203 272.059H321.627V293.301H329.203C335.468 293.301 340.566 298.066 340.566 303.922C340.566 309.777 335.468 314.542 329.203 314.542H321.627V335.784H329.203C348 335.784 363.294 321.49 363.294 303.922Z" fill="#FFCD00"/>
<path d="M202.797 369.921L207.044 399.755H41.6025L45.8489 369.921C47.7332 356.78 54.2894 344.758 64.3163 336.058C74.3432 327.358 87.1693 322.562 100.444 322.549H148.202C161.477 322.562 174.303 327.358 184.33 336.058C194.357 344.758 200.913 356.78 202.797 369.921V369.921Z" fill="#A7A9AC"/>
<path d="M214.71 476.961H33.9375C30.7769 476.954 27.6545 476.27 24.7809 474.954C21.9073 473.638 19.3494 471.721 17.2796 469.333C15.2099 466.944 13.6765 464.139 12.7828 461.108C11.8892 458.076 11.6561 454.888 12.0992 451.759L16.8419 418.671C17.5981 413.418 20.2223 408.614 24.2334 405.14C28.2445 401.666 33.3736 399.754 38.6801 399.755H209.967C215.273 399.754 220.403 401.666 224.414 405.14C228.425 408.614 231.049 413.418 231.805 418.671L236.548 451.759C236.991 454.888 236.758 458.076 235.864 461.108C234.971 464.139 233.437 466.944 231.367 469.333C229.298 471.721 226.74 473.638 223.866 474.954C220.992 476.27 217.87 476.954 214.71 476.961Z" fill="#58595B"/>
<path d="M236.548 451.759L231.805 418.671C231.049 413.418 228.425 408.614 224.414 405.14C220.403 401.666 215.274 399.754 209.967 399.755H150.243C117.201 439.619 69.8611 464.958 18.3643 470.343C20.3873 472.43 22.8074 474.09 25.482 475.227C28.1566 476.363 31.0317 476.953 33.9378 476.961H214.71C217.87 476.954 220.993 476.27 223.866 474.954C226.74 473.638 229.298 471.721 231.368 469.333C233.437 466.944 234.971 464.139 235.865 461.108C236.758 458.076 236.991 454.888 236.548 451.759V451.759Z" fill="#212529"/>
<path d="M207.045 399.755L202.798 369.921C200.979 357.279 194.823 345.662 185.383 337.059C177.593 359.926 165.684 381.175 150.243 399.755H207.045Z" fill="#929497"/>
<path d="M37.4669 370.638L41.6029 399.755H36.0882L25.0588 388.726H14.0294C11.1069 388.717 8.3066 387.552 6.24008 385.486C4.17355 383.419 3.00873 380.619 3 377.696V372.182C3.00873 369.259 4.17355 366.459 6.24008 364.392C8.3066 362.326 11.1069 361.161 14.0294 361.152H26.5478C29.202 361.164 31.7638 362.128 33.7676 363.869C35.7713 365.609 37.084 368.011 37.4669 370.638V370.638Z" fill="#212529"/>
<path d="M245.647 372.182V377.696C245.638 380.619 244.473 383.419 242.407 385.486C240.34 387.552 237.54 388.717 234.617 388.726H223.588L212.559 399.755H207.044L211.18 370.638C211.563 368.011 212.876 365.609 214.879 363.869C216.883 362.128 219.445 361.164 222.099 361.152H234.617C237.54 361.161 240.34 362.326 242.407 364.392C244.473 366.459 245.638 369.259 245.647 372.182V372.182Z" fill="#212529"/>
<path d="M80.2055 476.961V487.99C80.1968 490.913 79.032 493.713 76.9655 495.78C74.8989 497.846 72.0986 499.011 69.1761 499.02H47.1173C44.1948 499.011 41.3945 497.846 39.328 495.78C37.2614 493.713 36.0966 490.913 36.0879 487.99V476.961H80.2055Z" fill="#58595B"/>
<path d="M212.559 476.961V487.99C212.55 490.913 211.385 493.713 209.319 495.78C207.252 497.846 204.452 499.011 201.53 499.02H179.471C176.548 499.011 173.748 497.846 171.681 495.78C169.615 493.713 168.45 490.913 168.441 487.99V476.961H212.559Z" fill="#58595B"/>
<path d="M190.5 449.387C196.591 449.387 201.53 444.449 201.53 438.358C201.53 432.267 196.591 427.329 190.5 427.329C184.409 427.329 179.471 432.267 179.471 438.358C179.471 444.449 184.409 449.387 190.5 449.387Z" fill="#F1F2F2"/>
<path d="M157.412 432.843L151.897 449.388H96.7501L91.2354 432.843H157.412Z" fill="white"/>
<path d="M58.1466 449.387C64.238 449.387 69.176 444.449 69.176 438.358C69.176 432.267 64.238 427.329 58.1466 427.329C52.0552 427.329 47.1172 432.267 47.1172 438.358C47.1172 444.449 52.0552 449.387 58.1466 449.387Z" fill="#F1F2F2"/>
<path d="M100.649 340.709C99.6145 339.675 98.2121 339.095 96.7498 339.095C95.2874 339.095 93.885 339.675 92.8509 340.709L65.2773 368.283C64.7506 368.791 64.3305 369.4 64.0415 370.073C63.7525 370.746 63.6003 371.469 63.594 372.202C63.5876 372.934 63.7271 373.66 64.0044 374.338C64.2817 375.015 64.6912 375.631 65.209 376.149C65.7268 376.667 66.3425 377.076 67.0202 377.353C67.698 377.631 68.4241 377.77 69.1564 377.764C69.8886 377.758 70.6123 377.605 71.2851 377.316C71.9579 377.027 72.5664 376.607 73.0751 376.081L100.649 348.507C101.683 347.473 102.263 346.07 102.263 344.608C102.263 343.146 101.683 341.743 100.649 340.709V340.709Z" fill="#F1F2F2"/>
<path d="M120.424 340.709L92.8506 368.283C92.3238 368.792 91.9037 369.4 91.6147 370.073C91.3257 370.746 91.1736 371.469 91.1672 372.202C91.1608 372.934 91.3004 373.66 91.5777 374.338C91.8549 375.015 92.2644 375.631 92.7822 376.149C93.3 376.667 93.9157 377.076 94.5935 377.354C95.2712 377.631 95.9974 377.77 96.7296 377.764C97.4619 377.758 98.1855 377.606 98.8583 377.316C99.5311 377.027 100.14 376.607 100.648 376.081L128.222 348.507C129.226 347.467 129.782 346.074 129.77 344.628C129.757 343.182 129.177 341.799 128.155 340.776C127.132 339.754 125.749 339.174 124.303 339.161C122.857 339.149 121.464 339.705 120.424 340.709Z" fill="#F1F2F2"/>
<path d="M602.307 369.921L606.553 399.755H441.112L445.359 369.921C447.243 356.78 453.799 344.758 463.826 336.058C473.853 327.358 486.679 322.562 499.954 322.549H547.712C560.987 322.562 573.813 327.358 583.84 336.058C593.867 344.758 600.423 356.78 602.307 369.921V369.921Z" fill="#A7A9AC"/>
<path d="M614.219 476.961H433.447C430.287 476.954 427.164 476.27 424.291 474.954C421.417 473.638 418.859 471.721 416.789 469.333C414.72 466.944 413.186 464.139 412.293 461.108C411.399 458.076 411.166 454.888 411.609 451.759L416.352 418.671C417.108 413.418 419.732 408.614 423.743 405.14C427.754 401.666 432.883 399.754 438.19 399.755H609.477C614.783 399.754 619.912 401.666 623.923 405.14C627.934 408.614 630.559 413.418 631.315 418.671L636.058 451.759C636.501 454.888 636.268 458.076 635.374 461.108C634.48 464.139 632.947 466.944 630.877 469.333C628.807 471.721 626.249 473.638 623.376 474.954C620.502 476.27 617.38 476.954 614.219 476.961Z" fill="#58595B"/>
<path d="M636.058 451.759L631.315 418.671C630.559 413.418 627.935 408.614 623.924 405.14C619.913 401.666 614.784 399.754 609.477 399.755H549.753C516.711 439.619 469.371 464.958 417.874 470.343C419.897 472.43 422.317 474.09 424.992 475.227C427.666 476.363 430.541 476.953 433.448 476.961H614.22C617.38 476.954 620.503 476.27 623.376 474.954C626.25 473.638 628.808 471.721 630.877 469.333C632.947 466.944 634.481 464.139 635.374 461.108C636.268 458.076 636.501 454.888 636.058 451.759V451.759Z" fill="#212529"/>
<path d="M606.554 399.755L602.308 369.921C600.489 357.279 594.333 345.662 584.893 337.059C577.103 359.926 565.193 381.175 549.753 399.755H606.554Z" fill="#929497"/>
<path d="M436.977 370.638L441.113 399.755H435.598L424.569 388.726H413.539C410.617 388.717 407.816 387.552 405.75 385.486C403.683 383.419 402.518 380.619 402.51 377.696V372.182C402.518 369.259 403.683 366.459 405.75 364.392C407.816 362.326 410.617 361.161 413.539 361.152H426.058C428.712 361.164 431.274 362.128 433.277 363.869C435.281 365.609 436.594 368.011 436.977 370.638V370.638Z" fill="#212529"/>
<path d="M645.157 372.182V377.696C645.148 380.619 643.983 383.419 641.917 385.486C639.85 387.552 637.05 388.717 634.127 388.726H623.098L612.068 399.755H606.554L610.69 370.638C611.073 368.011 612.385 365.609 614.389 363.869C616.393 362.128 618.955 361.164 621.609 361.152H634.127C637.05 361.161 639.85 362.326 641.917 364.392C643.983 366.459 645.148 369.259 645.157 372.182V372.182Z" fill="#212529"/>
<path d="M479.715 476.961V487.99C479.707 490.913 478.542 493.713 476.475 495.78C474.409 497.846 471.608 499.011 468.686 499.02H446.627C443.705 499.011 440.904 497.846 438.838 495.78C436.771 493.713 435.606 490.913 435.598 487.99V476.961H479.715Z" fill="#58595B"/>
<path d="M612.069 476.961V487.99C612.06 490.913 610.895 493.713 608.829 495.78C606.762 497.846 603.962 499.011 601.039 499.02H578.981C576.058 499.011 573.258 497.846 571.191 495.78C569.125 493.713 567.96 490.913 567.951 487.99V476.961H612.069Z" fill="#58595B"/>
<path d="M590.01 449.387C596.101 449.387 601.039 444.449 601.039 438.358C601.039 432.267 596.101 427.329 590.01 427.329C583.919 427.329 578.98 432.267 578.98 438.358C578.98 444.449 583.919 449.387 590.01 449.387Z" fill="#F1F2F2"/>
<path d="M556.922 432.843L551.407 449.388H496.26L490.745 432.843H556.922Z" fill="white"/>
<path d="M457.657 449.387C463.749 449.387 468.687 444.449 468.687 438.358C468.687 432.267 463.749 427.329 457.657 427.329C451.566 427.329 446.628 432.267 446.628 438.358C446.628 444.449 451.566 449.387 457.657 449.387Z" fill="#F1F2F2"/>
<path d="M500.158 340.709C499.124 339.675 497.722 339.095 496.26 339.095C494.797 339.095 493.395 339.675 492.361 340.709L464.787 368.283C464.26 368.791 463.84 369.4 463.551 370.073C463.262 370.746 463.11 371.469 463.104 372.202C463.097 372.934 463.237 373.66 463.514 374.338C463.791 375.015 464.201 375.631 464.719 376.149C465.237 376.667 465.852 377.076 466.53 377.353C467.208 377.631 467.934 377.77 468.666 377.764C469.398 377.758 470.122 377.605 470.795 377.316C471.468 377.027 472.076 376.607 472.585 376.081L500.158 348.507C501.192 347.473 501.773 346.07 501.773 344.608C501.773 343.146 501.192 341.743 500.158 340.709V340.709Z" fill="#F1F2F2"/>
<path d="M519.934 340.709L492.36 368.283C491.834 368.792 491.413 369.4 491.124 370.073C490.835 370.746 490.683 371.469 490.677 372.202C490.671 372.934 490.81 373.66 491.087 374.338C491.365 375.015 491.774 375.631 492.292 376.149C492.81 376.667 493.425 377.076 494.103 377.354C494.781 377.631 495.507 377.77 496.239 377.764C496.972 377.758 497.695 377.606 498.368 377.316C499.041 377.027 499.649 376.607 500.158 376.081L527.732 348.507C528.736 347.467 529.292 346.074 529.279 344.628C529.267 343.182 528.687 341.799 527.664 340.776C526.642 339.754 525.259 339.174 523.813 339.161C522.367 339.149 520.974 339.705 519.934 340.709Z" fill="#F1F2F2"/>
<path d="M346.137 468.487V500H302.02V468.487C302.03 465.147 303.361 461.947 305.722 459.585C308.084 457.224 311.285 455.892 314.625 455.882H333.532C336.872 455.892 340.072 457.224 342.434 459.585C344.796 461.947 346.127 465.147 346.137 468.487V468.487Z" fill="#58595B"/>
<path d="M26.4212 577.482H41.0172C46.1198 577.482 48.6712 574.96 48.6712 569.917V564.132C48.6712 559.089 45.9418 556.567 40.4832 556.567H26.4212C25.8278 556.567 25.5312 556.834 25.5312 557.368V576.592C25.5312 577.185 25.8278 577.482 26.4212 577.482ZM26.4212 551.138H40.1272C45.3485 551.138 47.9592 548.616 47.9592 543.573V538.856C47.9592 533.813 45.4375 531.291 40.3942 531.291H26.4212C25.8278 531.291 25.5312 531.588 25.5312 532.181V550.337C25.5312 550.871 25.8278 551.138 26.4212 551.138ZM19.0342 581.754V527.019C19.0342 526.188 19.4495 525.773 20.2802 525.773H41.1952C45.2892 525.773 48.4932 526.93 50.8072 529.244C53.1212 531.499 54.2782 534.673 54.2782 538.767V543.662C54.2782 548.943 51.7862 552.354 46.8022 553.897C49.0568 554.075 50.9852 555.084 52.5872 556.923C54.1892 558.703 54.9902 561.076 54.9902 564.043V570.006C54.9902 574.1 53.8035 577.304 51.4302 579.618C49.1162 581.873 45.9122 583 41.8182 583H20.2802C19.4495 583 19.0342 582.585 19.0342 581.754Z" fill="#A7A9AC"/>
<path d="M94.1349 583H65.5659C64.7352 583 64.3199 582.585 64.3199 581.754V527.019C64.3199 526.188 64.7352 525.773 65.5659 525.773H69.5709C70.4016 525.773 70.8169 526.188 70.8169 527.019V576.325C70.8169 576.859 71.1135 577.126 71.7069 577.126H94.1349C94.9656 577.126 95.3809 577.571 95.3809 578.461V581.754C95.3809 582.585 94.9656 583 94.1349 583Z" fill="#A7A9AC"/>
<path d="M113.908 577.304H122.986C127.97 577.304 130.462 574.723 130.462 569.561V539.212C130.462 534.05 127.97 531.469 122.986 531.469H113.908C108.984 531.469 106.521 534.05 106.521 539.212V569.561C106.521 574.723 108.984 577.304 113.908 577.304ZM123.787 583H113.196C109.102 583 105.869 581.843 103.495 579.529C101.181 577.215 100.024 573.981 100.024 569.828V538.945C100.024 534.792 101.181 531.558 103.495 529.244C105.869 526.93 109.102 525.773 113.196 525.773H123.787C127.881 525.773 131.085 526.96 133.399 529.333C135.773 531.647 136.959 534.851 136.959 538.945V569.828C136.959 573.922 135.773 577.156 133.399 579.529C131.085 581.843 127.881 583 123.787 583Z" fill="#A7A9AC"/>
<path d="M169.51 583H158.83C154.736 583 151.502 581.843 149.129 579.529C146.815 577.215 145.658 573.981 145.658 569.828V538.945C145.658 534.792 146.815 531.558 149.129 529.244C151.502 526.93 154.736 525.773 158.83 525.773H169.51C173.604 525.773 176.808 526.93 179.122 529.244C181.495 531.558 182.682 534.792 182.682 538.945V543.306C182.682 544.137 182.266 544.552 181.436 544.552H177.431C176.6 544.552 176.185 544.137 176.185 543.306V539.212C176.185 534.05 173.693 531.469 168.709 531.469H159.542C154.617 531.469 152.155 534.05 152.155 539.212V569.561C152.155 574.723 154.617 577.304 159.542 577.304H168.709C173.693 577.304 176.185 574.723 176.185 569.561V565.467C176.185 564.636 176.6 564.221 177.431 564.221H181.436C182.266 564.221 182.682 564.636 182.682 565.467V569.828C182.682 573.981 181.495 577.215 179.122 579.529C176.808 581.843 173.604 583 169.51 583Z" fill="#A7A9AC"/>
<path d="M196.389 583H192.384C191.553 583 191.138 582.585 191.138 581.754V527.019C191.138 526.188 191.553 525.773 192.384 525.773H196.389C197.22 525.773 197.635 526.188 197.635 527.019V557.724H197.902C198.317 556.478 198.97 555.262 199.86 554.075L219.796 527.019C220.33 526.188 221.101 525.773 222.11 525.773H226.916C227.925 525.773 228.073 526.218 227.361 527.108L209.739 550.96L229.853 581.576C230.506 582.525 230.239 583 229.052 583H225.403C224.157 583 223.297 582.585 222.822 581.754L205.734 555.677L197.635 565.378V581.754C197.635 582.585 197.22 583 196.389 583Z" fill="#A7A9AC"/>
<path d="M271.682 583H267.677C266.847 583 266.431 582.585 266.431 581.754V561.551L249.521 527.108C249.343 526.693 249.343 526.366 249.521 526.129C249.699 525.892 249.966 525.773 250.322 525.773H255.306C255.959 525.773 256.463 526.188 256.819 527.019L269.546 553.986H269.991L282.629 527.019C282.867 526.188 283.341 525.773 284.053 525.773H289.126C290.135 525.773 290.402 526.218 289.927 527.108L272.928 561.551V581.754C272.928 582.585 272.513 583 271.682 583Z" fill="#A7A9AC"/>
<path d="M308.439 577.304H317.517C322.501 577.304 324.993 574.723 324.993 569.561V539.212C324.993 534.05 322.501 531.469 317.517 531.469H308.439C303.515 531.469 301.052 534.05 301.052 539.212V569.561C301.052 574.723 303.515 577.304 308.439 577.304ZM318.318 583H307.727C303.633 583 300.4 581.843 298.026 579.529C295.712 577.215 294.555 573.981 294.555 569.828V538.945C294.555 534.792 295.712 531.558 298.026 529.244C300.4 526.93 303.633 525.773 307.727 525.773H318.318C322.412 525.773 325.616 526.96 327.93 529.333C330.304 531.647 331.49 534.851 331.49 538.945V569.828C331.49 573.922 330.304 577.156 327.93 579.529C325.616 581.843 322.412 583 318.318 583Z" fill="#A7A9AC"/>
<path d="M371.517 525.773H375.522C376.352 525.773 376.768 526.159 376.768 526.93V569.828C376.768 573.981 375.611 577.215 373.297 579.529C370.983 581.843 367.779 583 363.685 583H353.806C349.712 583 346.478 581.843 344.105 579.529C341.791 577.215 340.634 573.981 340.634 569.828V527.019C340.634 526.188 341.049 525.773 341.88 525.773H345.885C346.715 525.773 347.131 526.188 347.131 527.019V569.561C347.131 574.723 349.593 577.304 354.518 577.304H362.884C367.868 577.304 370.36 574.723 370.36 569.561V527.019C370.36 526.188 370.745 525.773 371.517 525.773Z" fill="#A7A9AC"/>
<path d="M392.05 583H388.045C387.214 583 386.799 582.585 386.799 581.754V527.019C386.799 526.188 387.214 525.773 388.045 525.773H408.515C412.609 525.773 415.843 526.96 418.216 529.333C420.589 531.647 421.776 534.851 421.776 538.945V547.044C421.776 550.367 420.975 553.126 419.373 555.321C417.771 557.457 415.546 558.881 412.698 559.593V559.949L423.022 581.576C423.556 582.525 423.259 583 422.132 583H418.127C417.118 583 416.377 582.585 415.902 581.754L405.934 560.216H394.186C393.593 560.216 393.296 560.483 393.296 561.017V581.754C393.296 582.585 392.881 583 392.05 583ZM394.186 554.787H407.625C412.728 554.787 415.279 552.236 415.279 547.133V539.212C415.279 534.05 412.728 531.469 407.625 531.469H394.186C393.593 531.469 393.296 531.736 393.296 532.27V553.986C393.296 554.52 393.593 554.787 394.186 554.787Z" fill="#A7A9AC"/>
<path d="M449.456 569.828V566.98C449.456 566.149 449.872 565.734 450.702 565.734H454.707C455.538 565.734 455.953 566.149 455.953 566.98V569.294C455.953 574.634 458.594 577.304 463.874 577.304H471.706C476.987 577.304 479.627 574.575 479.627 569.116V566.09C479.627 561.818 476.097 559.029 469.036 557.724C466.07 557.19 463.103 556.567 460.136 555.855C457.17 555.143 454.648 553.778 452.571 551.761C450.495 549.684 449.456 546.866 449.456 543.306V538.945C449.456 534.851 450.613 531.647 452.927 529.333C455.301 526.96 458.534 525.773 462.628 525.773H472.507C476.542 525.773 479.746 526.96 482.119 529.333C484.493 531.647 485.679 534.851 485.679 538.945V541.17C485.679 542.06 485.294 542.505 484.522 542.505H480.428C479.657 542.505 479.271 542.06 479.271 541.17V539.568C479.271 534.169 476.631 531.469 471.35 531.469H463.785C458.505 531.469 455.864 534.287 455.864 539.924V543.484C455.864 546.51 457.852 548.587 461.827 549.714C463.607 550.189 465.565 550.634 467.701 551.049C469.837 551.405 471.973 551.909 474.109 552.562C476.305 553.155 478.292 553.927 480.072 554.876C481.852 555.766 483.276 557.16 484.344 559.059C485.472 560.898 486.035 563.153 486.035 565.823V569.828C486.035 573.922 484.849 577.156 482.475 579.529C480.102 581.843 476.898 583 472.863 583H462.628C458.594 583 455.39 581.843 453.016 579.529C450.643 577.156 449.456 573.922 449.456 569.828Z" fill="#A7A9AC"/>
<path d="M501.137 583H497.132C496.302 583 495.886 582.585 495.886 581.754V527.019C495.886 526.188 496.302 525.773 497.132 525.773H517.958C522.052 525.773 525.256 526.96 527.57 529.333C529.884 531.647 531.041 534.851 531.041 538.945V548.824C531.041 552.977 529.884 556.211 527.57 558.525C525.256 560.839 522.052 561.996 517.958 561.996H503.273C502.68 561.996 502.383 562.263 502.383 562.797V581.754C502.383 582.585 501.968 583 501.137 583ZM503.273 556.211H517.068C522.052 556.211 524.544 553.66 524.544 548.557V539.212C524.544 534.05 522.052 531.469 517.068 531.469H503.273C502.68 531.469 502.383 531.736 502.383 532.27V555.41C502.383 555.944 502.68 556.211 503.273 556.211Z" fill="#A7A9AC"/>
<path d="M539.885 583H535.435C534.664 583 534.397 582.585 534.634 581.754L551.277 527.019C551.514 526.188 552.078 525.773 552.968 525.773H559.376C560.266 525.773 560.83 526.188 561.067 527.019L577.71 581.754C577.947 582.585 577.68 583 576.909 583H572.37C571.717 583 571.302 582.585 571.124 581.754L566.941 568.76H545.403L541.22 581.754C540.983 582.585 540.538 583 539.885 583ZM555.994 532.448L546.827 563.242H565.517L556.35 532.448H555.994Z" fill="#A7A9AC"/>
<path d="M606.639 583H595.959C591.865 583 588.631 581.843 586.258 579.529C583.944 577.215 582.787 573.981 582.787 569.828V538.945C582.787 534.792 583.944 531.558 586.258 529.244C588.631 526.93 591.865 525.773 595.959 525.773H606.639C610.733 525.773 613.937 526.93 616.251 529.244C618.624 531.558 619.811 534.792 619.811 538.945V543.306C619.811 544.137 619.395 544.552 618.565 544.552H614.56C613.729 544.552 613.314 544.137 613.314 543.306V539.212C613.314 534.05 610.822 531.469 605.838 531.469H596.671C591.746 531.469 589.284 534.05 589.284 539.212V569.561C589.284 574.723 591.746 577.304 596.671 577.304H605.838C610.822 577.304 613.314 574.723 613.314 569.561V565.467C613.314 564.636 613.729 564.221 614.56 564.221H618.565C619.395 564.221 619.811 564.636 619.811 565.467V569.828C619.811 573.981 618.624 577.215 616.251 579.529C613.937 581.843 610.733 583 606.639 583Z" fill="#A7A9AC"/>
<path d="M657.459 583H629.513C628.682 583 628.267 582.585 628.267 581.754V527.019C628.267 526.188 628.682 525.773 629.513 525.773H657.459C658.29 525.773 658.705 526.188 658.705 527.019V530.223C658.705 531.054 658.29 531.469 657.459 531.469H635.654C635.061 531.469 634.764 531.736 634.764 532.27V550.248C634.764 550.782 635.061 551.049 635.654 551.049H654.7C655.531 551.049 655.946 551.464 655.946 552.295V555.499C655.946 556.33 655.531 556.745 654.7 556.745H635.654C635.061 556.745 634.764 557.012 634.764 557.546V576.503C634.764 577.037 635.061 577.304 635.654 577.304H657.459C658.29 577.304 658.705 577.719 658.705 578.55V581.754C658.705 582.585 658.29 583 657.459 583Z" fill="#A7A9AC"/>
<defs>
<filter id="filter0_d_1_681" x="0.259766" y="0" width="653.5" height="326.196" filterUnits="userSpaceOnUse" color-interpolation-filters="sRGB">
<feFlood flood-opacity="0" result="BackgroundImageFix"/>
<feColorMatrix in="SourceAlpha" type="matrix" values="0 0 0 0 0 0 0 0 0 0 0 0 0 0 0 0 0 0 127 0" result="hardAlpha"/>
<feOffset dy="7"/>
<feGaussianBlur stdDeviation="2"/>
<feComposite in2="hardAlpha" operator="out"/>
<feColorMatrix type="matrix" values="0 0 0 0 0.595833 0 0 0 0 0.595833 0 0 0 0 0.595833 0 0 0 0.4 0"/>
<feBlend mode="normal" in2="BackgroundImageFix" result="effect1_dropShadow_1_681"/>
<feBlend mode="normal" in="SourceGraphic" in2="effect1_dropShadow_1_681" result="shape"/>
</filter>
</defs>
</svg>
