<svg width="240" height="240" viewBox="0 0 240 240" fill="none" xmlns="http://www.w3.org/2000/svg">
<path d="M216.25 203.334H23.75C16.1566 203.334 10 197.177 10 189.584V52.0839C10 44.4888 16.1566 38.3339 23.75 38.3339H92.5V47.5H23.75C21.2189 47.5 19.1661 49.5527 19.1661 52.0839V189.584C19.1661 192.115 21.2189 194.166 23.75 194.166H216.25C218.781 194.166 220.834 192.115 220.834 189.584V143.75H230V189.584C230 197.177 223.843 203.334 216.25 203.334Z" fill="black"/>
<path d="M170.416 240H69.5839C67.0528 240 65 237.947 65 235.416V217.084C65 214.553 67.0528 212.5 69.5839 212.5H170.416C172.947 212.5 175 214.553 175 217.084V235.416C175 237.947 172.947 240 170.416 240V240ZM74.1661 230.834H165.834V221.666H74.1661V230.834Z" fill="black"/>
<path d="M83.334 198.75H92.5001V217.084H83.334V198.75Z" fill="black"/>
<path d="M147.5 198.75H156.666V217.084H147.5V198.75Z" fill="black"/>
<path d="M197.916 185H42.084C34.4889 185 28.334 178.843 28.334 171.25V70.416C28.334 62.8226 34.4889 56.666 42.084 56.666H92.5001V65.8338H42.084C39.5529 65.8338 37.5001 67.8849 37.5001 70.416V171.25C37.5001 173.781 39.5529 175.834 42.084 175.834H197.916C200.447 175.834 202.5 173.781 202.5 171.25V143.75H211.666V171.25C211.666 178.843 205.511 185 197.916 185V185Z" fill="black"/>
<path d="M165.834 148.334H83.3343C81.4796 148.332 79.8095 147.216 79.0995 145.504C78.3912 143.792 78.7823 141.82 80.0931 140.509L101.666 118.936V84.1661C101.666 48.7286 130.395 20 165.834 20C201.272 20 230 48.7286 230 84.1661C230 119.605 201.272 148.334 165.834 148.334V148.334ZM94.397 139.166H165.834C196.209 139.166 220.834 114.543 220.834 84.1661C220.834 53.7909 196.209 29.1661 165.834 29.1661C135.457 29.1661 110.834 53.7909 110.834 84.1661V120.834C110.834 122.049 110.351 123.214 109.491 124.073L94.397 139.166Z" fill="black"/>
<path d="M170.416 111.666H161.25V79.5839H152.084V70.4161H165.834C168.365 70.4161 170.416 72.4689 170.416 75V111.666Z" fill="black"/>
<path d="M152.084 107.084H179.584V116.25H152.084V107.084Z" fill="black"/>
<path d="M161.25 52.0839H170.416V61.25H161.25V52.0839Z" fill="black"/>
<path d="M55.8338 97.916H46.666V88.7499C46.666 81.1565 52.8226 74.9999 60.416 74.9999H69.5838V84.166H60.416C57.8849 84.166 55.8338 86.2187 55.8338 88.7499V97.916Z" fill="black"/>
<path d="M46.666 107.084H55.8338V116.25H46.666V107.084Z" fill="black"/>
</svg>
