<svg width="240" height="240" viewBox="0 0 240 240" fill="none" xmlns="http://www.w3.org/2000/svg">
<path d="M34.4658 107.501H58.3065C60.4805 107.501 62.244 105.737 62.244 103.563V79.7228C62.244 77.5473 60.4819 75.7853 58.3065 75.7853H34.4658C32.2904 75.7853 30.5283 77.5473 30.5283 79.7228V103.563C30.5283 105.739 32.2904 107.501 34.4658 107.501ZM54.369 83.6603V99.6259H38.4034V83.6603H54.369Z" fill="black" stroke="black"/>
<path d="M102.982 103.564V103.563V79.7228C102.982 77.5473 101.22 75.7853 99.0448 75.7853H75.2041C73.0287 75.7853 71.2666 77.5473 71.2666 79.7228V103.563C71.2666 105.739 73.0287 107.501 75.2041 107.501H99.0448C101.219 107.501 102.982 105.737 102.982 103.564ZM95.1072 83.6603V99.6259H79.1417V83.6603H95.1072Z" fill="black" stroke="black"/>
<path d="M115.94 107.501H139.781C141.956 107.501 143.719 105.737 143.719 103.563V79.7228C143.719 77.5473 141.957 75.7853 139.781 75.7853H115.94C113.765 75.7853 112.003 77.5473 112.003 79.7228V103.563C112.003 105.739 113.765 107.501 115.94 107.501ZM135.844 83.6603V99.6259H119.878V83.6603H135.844Z" fill="black" stroke="black"/>
<path d="M156.679 107.501H180.519C182.693 107.501 184.457 105.737 184.457 103.563V79.7228C184.457 77.5473 182.695 75.7853 180.519 75.7853H156.679C154.503 75.7853 152.741 77.5473 152.741 79.7228V103.563C152.741 105.739 154.503 107.501 156.679 107.501ZM176.582 83.6603V99.6259H160.616V83.6603H176.582Z" fill="black" stroke="black"/>
<path d="M34.4658 144.274H58.3065C60.4805 144.274 62.244 142.51 62.244 140.336V116.495C62.244 114.32 60.4819 112.558 58.3065 112.558H34.4658C32.2904 112.558 30.5283 114.32 30.5283 116.495V140.336C30.5283 142.511 32.2904 144.274 34.4658 144.274ZM54.369 120.433V136.398H38.4034V120.433H54.369Z" fill="black" stroke="black"/>
<path d="M102.982 140.336V140.336V116.495C102.982 114.32 101.22 112.558 99.0448 112.558H75.2041C73.0287 112.558 71.2666 114.32 71.2666 116.495V140.336C71.2666 142.511 73.0287 144.274 75.2041 144.274H99.0448C101.219 144.274 102.982 142.51 102.982 140.336ZM95.1072 120.433V136.398H79.1417V120.433H95.1072Z" fill="black" stroke="black"/>
<path d="M34.4658 181.046H58.3065C60.4805 181.046 62.244 179.282 62.244 177.109V153.268C62.244 151.093 60.4819 149.331 58.3065 149.331H34.4658C32.2904 149.331 30.5283 151.093 30.5283 153.268V177.108C30.5283 179.284 32.2904 181.046 34.4658 181.046ZM54.369 157.205V173.171H38.4034V157.205H54.369Z" fill="black" stroke="black"/>
<path d="M102.982 177.109V177.109V153.268C102.982 151.093 101.22 149.331 99.0448 149.331H75.2041C73.0287 149.331 71.2666 151.093 71.2666 153.268V177.108C71.2666 179.284 73.0287 181.046 75.2041 181.046H99.0448C101.219 181.046 102.982 179.282 102.982 177.109ZM95.1072 157.205V173.171H79.1417V157.205H95.1072Z" fill="black" stroke="black"/>
<path d="M24.7251 198.073H119.849C122.023 198.073 123.787 196.311 123.787 194.136C123.787 191.96 122.023 190.198 119.849 190.198H24.7251C22.8783 190.198 21.3751 188.695 21.3751 186.849V66.6318H193.609V127.872C193.609 130.048 195.371 131.81 197.547 131.81C199.722 131.81 201.484 130.048 201.484 127.872V62.6942C201.484 60.5188 199.722 58.7567 197.547 58.7567H17.4375C15.2621 58.7567 13.5 60.5188 13.5 62.6942V186.849C13.5 193.038 18.5351 198.073 24.7251 198.073Z" fill="black" stroke="black"/>
<path d="M17.4375 66.6315H197.548C199.722 66.6315 201.486 64.8696 201.486 62.694V38.295C201.486 31.7898 196.195 26.4986 189.689 26.4986H171.456C169.281 26.4986 167.519 28.2607 167.519 30.4362C167.519 32.6116 169.281 34.3737 171.456 34.3737H189.689C191.851 34.3737 193.611 36.1333 193.611 38.295V58.7565H21.3751V38.2936C21.3751 36.1321 23.1346 34.3722 25.2964 34.3722H43.5296C45.7051 34.3722 47.4671 32.6102 47.4671 30.4347C47.4671 28.2593 45.7051 26.4972 43.5296 26.4972H25.2964C18.7912 26.4972 13.5 31.7884 13.5 38.2936V62.694C13.5 64.8695 15.2621 66.6315 17.4375 66.6315Z" fill="black" stroke="black"/>
<path d="M57.7735 34.3715H157.21C159.384 34.3715 161.148 32.6096 161.148 30.434C161.148 28.2585 159.386 26.4965 157.21 26.4965H57.7735C55.598 26.4965 53.8359 28.2585 53.8359 30.434C53.8359 32.6094 55.598 34.3715 57.7735 34.3715Z" fill="black" stroke="black"/>
<path d="M39.5908 40.3104C39.5908 46.4088 44.5526 51.3705 50.651 51.3705C56.7509 51.3705 61.7115 46.4084 61.7111 40.31C61.7111 40.31 61.7111 40.31 61.7111 40.31V20.5601C61.7111 14.4617 56.749 9.5 50.651 9.5C44.5529 9.5 39.5908 14.4617 39.5908 20.5601V40.3104ZM47.4655 20.5605C47.4655 18.8041 48.8948 17.3751 50.651 17.3751C52.4075 17.3751 53.8364 18.8041 53.8364 20.5601V40.3104C53.8364 42.0668 52.4071 43.4958 50.651 43.4958C48.8945 43.4958 47.4655 42.0665 47.4655 40.3104V20.5605Z" fill="black" stroke="black"/>
<path d="M153.274 40.3104C153.274 46.4088 158.235 51.3705 164.335 51.3705C170.433 51.3705 175.395 46.4084 175.395 40.31V20.5601C175.395 14.4617 170.433 9.5 164.335 9.5C158.235 9.5 153.274 14.4618 153.274 20.5601V40.3104ZM161.149 20.5605C161.149 18.8041 162.578 17.3751 164.335 17.3751C166.091 17.3751 167.52 18.804 167.52 20.5601C167.52 20.5602 167.52 20.5602 167.52 20.5602V40.3104C167.52 42.0668 166.091 43.4958 164.335 43.4958C162.578 43.4958 161.149 42.0665 161.149 40.3104V20.5605Z" fill="black" stroke="black"/>
<path d="M191.36 120.205L191.224 120.527L191.36 120.205C184.281 117.211 176.761 115.693 169.015 115.693C161.269 115.693 153.749 117.211 146.67 120.205C139.833 123.096 133.694 127.235 128.424 132.505C123.154 137.776 119.015 143.915 116.124 150.751L116.584 150.946L116.124 150.751C113.13 157.83 111.611 165.35 111.611 173.096C111.611 180.842 113.13 188.362 116.124 195.441C119.015 202.279 123.154 208.417 128.424 213.687C133.695 218.958 139.834 223.096 146.67 225.987C153.749 228.981 161.269 230.5 169.015 230.5C176.761 230.5 184.281 228.982 191.36 225.987C198.198 223.096 204.336 218.958 209.606 213.687C214.876 208.417 219.015 202.277 221.906 195.441C224.9 188.362 226.419 180.842 226.419 173.096C226.419 165.35 224.9 157.83 221.906 150.751C219.015 143.914 214.876 137.776 209.606 132.505C204.336 127.235 198.196 123.096 191.36 120.205ZM119.486 173.097C119.486 145.787 141.705 123.568 169.015 123.568C196.324 123.568 218.544 145.787 218.544 173.097C218.544 200.407 196.325 222.625 169.015 222.625C141.705 222.625 119.486 200.407 119.486 173.097Z" fill="black" stroke="black"/>
<path d="M158.431 173.097C158.431 178.935 163.179 183.683 169.017 183.683C174.854 183.683 179.603 178.935 179.603 173.097C179.603 167.259 174.855 162.51 169.017 162.51C163.179 162.51 158.431 167.259 158.431 173.097ZM166.306 173.097C166.306 171.603 167.523 170.386 169.017 170.386C170.511 170.386 171.728 171.603 171.728 173.097C171.728 174.591 170.511 175.808 169.017 175.808C167.523 175.808 166.306 174.591 166.306 173.097Z" fill="black" stroke="black"/>
<path d="M175.662 177.033H193.699C195.873 177.033 197.636 175.271 197.636 173.096C197.636 170.92 195.874 169.158 193.699 169.158H175.662C173.487 169.158 171.725 170.92 171.725 173.096C171.725 175.271 173.487 177.033 175.662 177.033Z" fill="black" stroke="black"/>
<path d="M165.078 166.448C165.078 168.623 166.84 170.385 169.016 170.385C171.19 170.385 172.953 168.623 172.953 166.448V144.66C172.953 142.485 171.191 140.723 169.016 140.723C166.84 140.723 165.078 142.485 165.078 144.66V166.448Z" fill="black" stroke="black"/>
<path d="M165.078 128.956C165.078 131.132 166.84 132.894 169.016 132.894C171.19 132.894 172.953 131.132 172.953 128.956V119.629C172.953 117.454 171.191 115.692 169.016 115.692C166.84 115.692 165.078 117.454 165.078 119.629V128.956Z" fill="black" stroke="black"/>
<path d="M135.02 144.67L135.02 144.67C135.79 145.439 136.798 145.823 137.805 145.823C138.811 145.823 139.819 145.439 140.589 144.67C142.126 143.133 142.126 140.639 140.589 139.102L133.993 132.506C132.455 130.969 129.962 130.969 128.424 132.506C126.887 134.043 126.887 136.537 128.424 138.074L135.02 144.67Z" fill="black" stroke="black"/>
<path d="M115.549 177.034H124.876C127.05 177.034 128.813 175.272 128.813 173.096C128.813 170.921 127.051 169.159 124.876 169.159H115.549C113.373 169.159 111.611 170.921 111.611 173.096C111.611 175.272 113.373 177.034 115.549 177.034Z" fill="black" stroke="black"/>
<path d="M128.424 208.118L128.424 208.118L135.02 201.524C135.02 201.524 135.02 201.524 135.02 201.524C136.558 199.986 139.051 199.986 140.589 201.524C142.126 203.061 142.126 205.555 140.589 207.092L140.589 207.092L133.993 213.686C133.993 213.686 133.993 213.686 133.993 213.686C133.224 214.455 132.215 214.84 131.209 214.84C130.202 214.84 129.193 214.456 128.424 213.686V208.118ZM128.424 208.118C126.887 209.655 126.887 212.149 128.424 213.686M128.424 208.118L128.424 213.686M128.424 213.686C128.424 213.686 128.424 213.686 128.424 213.686L128.778 213.333L128.424 213.686Z" fill="black" stroke="black"/>
<path d="M165.078 226.562C165.078 228.738 166.84 230.5 169.016 230.5C171.19 230.5 172.953 228.738 172.953 226.562V217.235C172.953 215.06 171.191 213.298 169.016 213.298C166.84 213.298 165.078 215.06 165.078 217.235V226.562Z" fill="black" stroke="black"/>
<path d="M204.038 213.687L204.037 213.687L197.442 207.092L197.442 207.092C195.905 205.555 195.903 203.061 197.442 201.524L204.038 213.687ZM204.038 213.687C204.807 214.456 205.815 214.84 206.822 214.84C207.827 214.84 208.838 214.456 209.606 213.686M204.038 213.687L209.606 208.118M209.606 208.118L209.606 208.118C211.143 209.655 211.145 212.149 209.606 213.686M209.606 208.118L203.01 201.524C203.01 201.524 203.01 201.524 203.01 201.524M209.606 208.118L203.01 201.524M209.606 213.686C209.606 213.686 209.606 213.687 209.605 213.687L209.252 213.333L209.606 213.686C209.606 213.686 209.606 213.686 209.606 213.686ZM203.01 201.524C201.473 199.987 198.979 199.987 197.442 201.524L203.01 201.524Z" fill="black" stroke="black"/>
<path d="M213.154 177.034H222.481C224.657 177.034 226.419 175.272 226.419 173.096C226.419 170.921 224.657 169.159 222.481 169.159H213.154C210.979 169.159 209.217 170.921 209.217 173.096C209.217 175.272 210.979 177.034 213.154 177.034Z" fill="black" stroke="black"/>
<path d="M197.441 144.67L197.441 144.67C198.211 145.439 199.219 145.823 200.225 145.823C201.232 145.823 202.24 145.439 203.009 144.67L203.009 144.67L209.605 138.074C211.142 136.537 211.142 134.043 209.605 132.506C208.068 130.969 205.574 130.969 204.037 132.506L197.441 139.102C195.904 140.639 195.904 143.133 197.441 144.67Z" fill="black" stroke="black"/>
</svg>
