<svg width="240" height="240" viewBox="0 0 240 240" fill="none" xmlns="http://www.w3.org/2000/svg">
<path d="M76.5588 157.143C81.001 157.143 85.133 155.787 88.5625 153.468L90.8396 155.746C91.6788 156.585 92.7782 157.004 93.8777 157.004C94.9772 157.004 96.0767 156.585 96.9158 155.746C98.5936 154.068 98.5936 151.347 96.9158 149.669L94.5793 147.333C96.7654 143.969 98.0415 139.962 98.0415 135.66C98.0415 123.814 88.4044 114.177 76.5588 114.177C64.7133 114.177 55.0762 123.814 55.0762 135.66C55.0762 147.505 64.7129 157.143 76.5588 157.143V157.143ZM76.5588 122.771C83.6661 122.771 89.4484 128.553 89.4484 135.66C89.4484 137.575 89.0256 139.392 88.2733 141.027L85.9197 138.673C84.2415 136.996 81.5217 136.996 79.8431 138.673C78.1653 140.351 78.1653 143.072 79.8431 144.75L82.293 147.2C80.5645 148.062 78.6182 148.55 76.5588 148.55C69.4515 148.55 63.6692 142.768 63.6692 135.661C63.6692 128.553 69.4515 122.771 76.5588 122.771V122.771Z" fill="black"/>
<path d="M112.451 155.021C114.649 156.425 117.127 157.139 119.815 157.143H119.837C122.144 157.143 124.314 156.64 126.285 155.647C131.143 153.201 133.818 149.161 133.818 144.272V118.475C133.818 116.102 131.894 114.178 129.522 114.178C127.149 114.178 125.225 116.102 125.225 118.475V144.272C125.225 145.403 124.892 146.727 122.419 147.972C121.648 148.361 120.803 148.55 119.837 148.55C119.833 148.55 119.83 148.55 119.826 148.55C118.786 148.549 117.887 148.297 117.078 147.78C115.138 146.54 114.759 145.562 114.759 144.292V118.474C114.759 116.101 112.835 114.178 110.463 114.178C108.09 114.178 106.166 116.101 106.166 118.474V144.292C106.165 148.746 108.28 152.356 112.451 155.021Z" fill="black"/>
<path d="M141.94 135.521C141.94 147.367 151.578 157.004 163.423 157.004C175.269 157.004 184.906 147.367 184.906 135.521C184.906 123.676 175.269 114.039 163.423 114.039C151.578 114.039 141.94 123.676 141.94 135.521ZM176.313 135.521C176.313 142.629 170.53 148.411 163.423 148.411C156.316 148.411 150.533 142.629 150.533 135.521C150.533 128.414 156.316 122.632 163.423 122.632C170.53 122.632 176.313 128.414 176.313 135.521Z" fill="black"/>
<path d="M148.973 59.8492V85.6666C148.973 90.1213 151.087 93.7312 155.259 96.3968C157.458 97.8009 159.935 98.5145 162.622 98.5184H162.645C164.952 98.5184 167.121 98.0153 169.092 97.0228C173.95 94.5768 176.626 90.5367 176.626 85.6473V59.8501C176.626 57.4771 174.702 55.5535 172.329 55.5535C169.956 55.5535 168.032 57.4771 168.032 59.8501V85.6473C168.032 86.7786 167.7 88.1032 165.226 89.3479C164.455 89.7367 163.611 89.9253 162.644 89.9253C162.641 89.9253 162.637 89.9253 162.634 89.9253C161.594 89.9241 160.694 89.6719 159.886 89.1554C157.946 87.9159 157.567 86.9375 157.567 85.6671V59.8496C157.567 57.4767 155.643 55.5531 153.27 55.5531C150.897 55.5531 148.973 57.4762 148.973 59.8492V59.8492Z" fill="black"/>
<path d="M43.5838 90.1011C40.1199 90.1011 36.7867 88.7047 34.6668 86.3653C33.0736 84.6067 30.3561 84.4731 28.5979 86.0667C26.8394 87.6598 26.7062 90.3774 28.2993 92.1355C32.021 96.2426 37.7349 98.6942 43.5838 98.6942C50.8802 98.6942 57.007 94.0397 58.1521 87.6272C59.0135 82.803 56.821 76.5004 48.0857 73.2785C43.8132 71.7029 39.8359 69.986 38.623 69.4554C37.6559 68.6816 37.6881 67.6015 37.753 67.1516C37.8419 66.5303 38.2926 65.0124 40.5453 64.3335C45.4657 62.8525 50.0174 66.4508 50.1425 66.551C51.9582 68.0573 54.653 67.8176 56.1739 66.0083C57.7009 64.1917 57.4659 61.4815 55.6493 59.9549C55.3219 59.6799 47.5323 53.2541 38.0666 56.1061C33.2897 57.545 29.9105 61.3096 29.2471 65.9305C28.625 70.2653 30.5039 74.4351 34.1503 76.8132C34.3403 76.937 39.7281 79.3555 45.1121 81.3413C46.6447 81.9063 50.1596 83.5038 49.693 86.1178C49.3429 88.0753 46.9622 90.1011 43.5838 90.1011V90.1011Z" fill="black"/>
<path d="M198.052 98.6942C205.348 98.6942 211.475 94.0397 212.62 87.6272C213.481 82.803 211.289 76.5004 202.553 73.2785C198.281 71.7029 194.304 69.986 193.091 69.4554C192.124 68.6816 192.156 67.6015 192.221 67.1516C192.31 66.5303 192.76 65.0124 195.013 64.3335C199.933 62.8525 204.486 66.4508 204.61 66.551C206.426 68.0573 209.121 67.8176 210.642 66.0083C212.169 64.1917 211.934 61.4815 210.117 59.9549C209.79 59.6799 202.001 53.2541 192.534 56.1061C187.757 57.545 184.378 61.3096 183.715 65.9305C183.093 70.2653 184.972 74.4351 188.618 76.8132C188.808 76.937 194.196 79.3555 199.58 81.3413C201.112 81.9063 204.627 83.5038 204.161 86.1178C203.811 88.0766 201.43 90.102 198.052 90.102C194.588 90.102 191.255 88.7056 189.134 86.3661C187.541 84.608 184.824 84.4748 183.065 86.0679C181.307 87.6615 181.174 90.3787 182.768 92.1368C186.489 96.2421 192.203 98.6942 198.052 98.6942Z" fill="black"/>
<path d="M74.7523 98.5179C77.1248 98.5179 79.0488 96.5944 79.0488 94.2214V64.1457H83.3801C85.7527 64.1457 87.6766 62.2221 87.6766 59.8491C87.6766 57.4762 85.7527 55.5526 83.3801 55.5526H66.194C63.8214 55.5526 61.8975 57.4762 61.8975 59.8491C61.8975 62.2221 63.8214 64.1457 66.194 64.1457H70.4557V94.2214C70.4557 96.5944 72.3797 98.5179 74.7523 98.5179Z" fill="black"/>
<path d="M135.419 94.2214V64.1457H139.75C142.123 64.1457 144.047 62.2221 144.047 59.8491C144.047 57.4762 142.123 55.5526 139.75 55.5526H122.564C120.192 55.5526 118.268 57.4762 118.268 59.8491C118.268 62.2221 120.192 64.1457 122.564 64.1457H126.826V94.2214C126.826 96.5944 128.75 98.5179 131.122 98.5179C133.495 98.5179 135.419 96.5944 135.419 94.2214Z" fill="black"/>
<path d="M112.61 95.7386C113.448 97.9586 115.926 99.0787 118.147 98.2413C120.367 97.4035 121.487 94.9244 120.65 92.7043L107.86 58.815C107.845 58.7759 107.83 58.7373 107.814 58.699C107.029 56.7875 105.187 55.5531 103.12 55.5531C103.118 55.5531 103.117 55.5531 103.115 55.5531C101.047 55.5548 99.2039 56.7935 98.4215 58.708C98.4086 58.7398 98.3958 58.7721 98.3837 58.8043L85.4769 92.6923C84.6322 94.9098 85.7451 97.3919 87.9625 98.2366C88.466 98.4282 88.9825 98.5193 89.4912 98.5193C91.2223 98.5193 92.8541 97.4649 93.5072 95.7506L95.6679 90.0779H110.474L112.61 95.7386ZM98.9406 81.4848L103.105 70.5514L107.231 81.4848H98.9406Z" fill="black"/>
<path d="M208.5 27.2037H189.427C187.055 27.2037 185.131 29.1273 185.131 31.5003C185.131 33.8732 187.055 35.7968 189.427 35.7968H208.5C215.607 35.7968 221.389 41.5791 221.389 48.6864V163.833C221.389 170.941 215.607 176.723 208.5 176.723H31.4827C24.3753 176.723 18.5931 170.941 18.5931 163.833V48.6864C18.5931 41.5791 24.3753 35.7968 31.4827 35.7968H150.759C153.131 35.7968 155.055 33.8732 155.055 31.5003C155.055 29.1273 153.131 27.2037 150.759 27.2037H134.599V14.2965C134.599 11.9236 132.675 10 130.303 10H109.68C107.307 10 105.383 11.9236 105.383 14.2965V27.2037H31.4827C19.6371 27.2037 10 36.8409 10 48.6864V163.833C10 175.679 19.6371 185.316 31.4827 185.316H105.383V225.703C105.383 228.076 107.307 230 109.68 230H130.303C132.675 230 134.599 228.076 134.599 225.703V185.316H208.5C220.345 185.316 229.982 175.679 229.982 163.833V48.6864C229.982 36.8409 220.345 27.2037 208.5 27.2037V27.2037ZM113.976 18.5931H126.006V27.2037H113.976V18.5931ZM126.006 221.407H113.976V185.316H126.006V221.407Z" fill="black"/>
<path d="M170.092 35.7968C172.465 35.7968 174.389 33.8732 174.389 31.5003C174.389 29.1274 172.465 27.2037 170.092 27.2037C167.72 27.2037 165.796 29.1274 165.796 31.5003C165.796 33.8732 167.72 35.7968 170.092 35.7968Z" fill="black"/>
</svg>
